<?xml version="1.0" standalone="no"?><!-- Generator: Gravit.io --><svg
   xmlns:svg="http://www.w3.org/2000/svg"
   xmlns="http://www.w3.org/2000/svg"
   version="1.0"
   width="86"
   height="50"
   viewBox="-3.020358 -3.020358 181.169976 106.719316"
   id="svg4762">
  <defs
     id="defs4764" />
  <path
     d="M 40.38538,70.6468 L 58.5245,70.6468 C 58.5245,70.6468 58.5245,69.26714 58.5245,69.26714 C 54.80013,69.26714 52.52475,68.78515 52.52475,63.61163 C 52.52475,63.61163 52.52475,47.5415 52.52475,47.5415 L 52.66263,47.5415 C 52.66263,47.5415 65.76726,63.74944 65.76726,63.74944 C 67.28325,65.61215 68.1115,66.85404 68.1115,67.61173 C 68.1115,68.78515 67.00763,69.26714 64.24938,69.26714 C 64.24938,69.26714 64.24938,70.6468 64.24938,70.6468 L 82.87138,70.6468 C 82.87138,70.6468 82.87138,69.26714 82.87138,69.26714 C 78.25076,69.26714 74.66388,65.88797 71.698,62.23302 C 71.698,62.23302 57.35163,44.78307 57.35163,44.78307 C 57.35163,44.78307 70.18063,30.78204 70.18063,30.78204 C 73.69775,26.98917 76.3195,26.09254 79.974,26.09254 C 79.974,26.09254 79.974,24.71283 79.974,24.71283 L 63.97375,24.71283 C 63.97375,24.71283 63.97375,26.09254 63.97375,26.09254 C 66.59413,26.09254 67.97413,26.644 67.97413,27.61014 C 67.97413,28.29942 67.14588,29.33392 66.3185,30.23059 C 66.3185,30.23059 52.52475,45.54192 52.52475,45.54192 C 52.52475,45.54192 52.52475,31.74813 52.52475,31.74813 C 52.52475,26.57454 54.80013,26.09254 58.5245,26.09254 C 58.5245,26.09254 58.5245,24.71283 58.5245,24.71283 L 40.38538,24.71283 C 40.38538,24.71283 40.38538,26.09254 40.38538,26.09254 C 44.179,26.09254 46.38588,26.57454 46.38588,31.74813 C 46.38588,31.74813 46.38588,63.61163 46.38588,63.61163 C 46.38588,68.78515 44.179,69.26714 40.38538,69.26714 C 40.38538,69.26714 40.38538,70.6468 40.38538,70.6468 z"
     id="path3126"
     style="fill:#006b34;fill-opacity:1;fill-rule:nonzero;stroke:none" />
  <path
     d="M 100.64988,33.19625 C 100.64988,27.81632 101.20125,27.40274 104.64988,27.40274 C 117.75451,27.40274 121.40938,35.05797 121.40938,47.74879 C 121.40938,61.61204 116.51275,67.9569 104.64988,67.9569 C 101.20125,67.9569 100.64988,67.19815 100.64988,62.16349 C 100.64988,62.16349 100.64988,33.19625 100.64988,33.19625 z M 88.51138,70.6468 C 88.51138,70.6468 104.64988,70.6468 104.64988,70.6468 C 115.47775,70.6468 128.23738,68.2327 128.23738,47.74879 C 128.23738,27.19552 116.09888,24.71283 104.64988,24.71283 C 104.64988,24.71283 88.51138,24.71283 88.51138,24.71283 C 88.51138,24.71283 88.51138,26.09254 88.51138,26.09254 C 92.23563,26.09254 94.511,26.57454 94.511,31.74813 C 94.511,31.74813 94.511,63.61163 94.511,63.61163 C 94.511,68.78515 92.23563,69.26714 88.51138,69.26714 C 88.51138,69.26714 88.51138,70.6468 88.51138,70.6468 z"
     id="path3128"
     style="fill:#006b34;fill-opacity:1;fill-rule:nonzero;stroke:none" />
  <path
     d="M 157.33513,71.33619 C 171.06038,71.33619 175.12926,61.05948 175.12926,47.68038 C 175.12926,34.23075 171.06038,24.0235 157.33513,24.0235 C 143.60938,24.0235 139.54101,34.23075 139.54101,47.68038 C 139.54101,61.05948 143.60938,71.33619 157.33513,71.33619 z M 146.36938,47.68038 C 146.36938,37.05855 147.472,26.71347 157.33513,26.71347 C 167.19688,26.71347 168.30075,37.05855 168.30075,47.68038 C 168.30075,58.3012 167.19688,68.64629 157.33513,68.64629 C 147.472,68.64629 146.36938,58.3012 146.36938,47.68038 z"
     id="path3130"
     style="fill:#006b34;fill-opacity:1;fill-rule:nonzero;stroke:none" />
  <path
     d="M 94.03888,100.53639 L 94.91826,100.53639 L 94.91826,95.11789 L 96.69,95.11789 L 96.69,94.38082 L 94.91826,94.38082 C 94.91826,94.38082 94.91826,93.70838 94.91826,93.70838 C 94.91826,92.88084 95.19001,92.31172 96.21163,92.31172 C 96.58638,92.31172 96.87088,92.40225 97.10388,92.47983 C 97.10388,92.47983 97.10388,91.69092 97.10388,91.69092 C 96.81888,91.6265 96.49613,91.5747 96.056,91.5747 C 94.51726,91.5747 94.03888,92.51867 94.03888,93.52722 C 94.03888,93.52722 94.03888,94.38082 94.03888,94.38082 L 93.00438,94.38082 L 93.00438,95.11789 L 94.03888,95.11789 L 94.03888,100.53639 z"
     id="path3132"
     style="fill:#023d88;fill-opacity:1;fill-rule:nonzero;stroke:none" />
  <path
     d="M 99.06713,93.16515 L 100.23113,93.16515 L 100.23113,92.02713 L 99.06713,92.02713 L 99.06713,93.16515 z M 101.343,93.16515 L 102.507,93.16515 L 102.507,92.02713 L 101.343,92.02713 L 101.343,93.16515 z M 101.98988,100.53639 L 102.86925,100.53639 L 102.86925,94.38082 L 101.98988,94.38082 C 101.98988,94.38082 101.98988,96.91557 101.98988,96.91557 C 101.98988,98.02765 101.42088,99.79917 100.25688,99.79917 C 99.35175,99.79917 99.35175,98.85519 99.35175,97.79474 C 99.35175,97.79474 99.35175,94.38082 99.35175,94.38082 L 98.47238,94.38082 C 98.47238,94.38082 98.47238,98.77767 98.47238,98.77767 C 98.47238,99.79917 98.98988,100.6786 100.05013,100.6786 C 101.42088,100.6786 101.809,99.61827 101.96413,99.11388 C 101.96413,99.11388 101.98988,99.11388 101.98988,99.11388 L 101.98988,100.53639 z"
     id="path3134"
     style="fill:#023d88;fill-opacity:1;fill-rule:nonzero;stroke:none" />
  <path
     d="M 105.76663,100.53639 L 106.64563,100.53639 C 106.64563,100.53639 106.64563,97.98869 106.64563,97.98869 C 106.64563,96.3336 107.33113,95.18257 108.72763,95.18257 C 108.72763,95.18257 108.72763,94.23855 108.72763,94.23855 C 107.31825,94.23855 106.85238,95.15673 106.67188,95.57053 C 106.67188,95.57053 106.64563,95.57053 106.64563,95.57053 L 106.64563,94.38082 L 105.76663,94.38082 L 105.76663,100.53639 z"
     id="path3136"
     style="fill:#023d88;fill-opacity:1;fill-rule:nonzero;stroke:none" />
  <path
     d="M 114.79888,100.53639 L 115.80713,100.53639 L 115.80713,96.16544 L 115.83301,96.16544 L 119.22113,100.53639 L 120.41088,100.53639 L 116.80301,95.89392 L 120.13926,91.61344 L 118.96238,91.61344 L 115.83301,95.66107 L 115.80713,95.66107 L 115.80713,91.61344 L 114.79888,91.61344 L 114.79888,100.53639 z"
     id="path3138"
     style="fill:#023d88;fill-opacity:1;fill-rule:nonzero;stroke:none" />
  <path
     d="M 124.04176,100.6786 C 125.86501,100.6786 126.57638,99.26899 126.57638,97.47153 C 126.57638,95.6739 125.86501,94.23855 124.04176,94.23855 C 122.2315,94.23855 121.53301,95.6739 121.53301,97.47153 C 121.53301,99.26899 122.2315,100.6786 124.04176,100.6786 z M 122.54176,97.45853 C 122.54176,95.91982 123.04588,94.97584 124.04176,94.97584 C 125.05063,94.97584 125.56763,95.91982 125.56763,97.45853 C 125.56763,99.01052 125.05063,99.94143 124.04176,99.94143 C 123.04588,99.94143 122.54176,99.01052 122.54176,97.45853 z"
     id="path3140"
     style="fill:#023d88;fill-opacity:1;fill-rule:nonzero;stroke:none" />
  <path
     d="M 128.95451,100.53639 L 129.83388,100.53639 C 129.83388,100.53639 129.83388,98.0017 129.83388,98.0017 C 129.83388,96.88962 130.35088,95.11789 131.37263,95.11789 C 132.27775,95.11789 132.27775,96.06208 132.27775,97.1223 C 132.27775,97.1223 132.27775,100.53639 132.27775,100.53639 L 133.15713,100.53639 C 133.15713,100.53639 133.15713,98.0017 133.15713,98.0017 C 133.15713,96.90252 133.66138,95.11789 134.69588,95.11789 C 135.6015,95.11789 135.6015,96.04902 135.6015,97.1223 C 135.6015,97.1223 135.6015,100.53639 135.6015,100.53639 L 136.48051,100.53639 C 136.48051,100.53639 136.48051,96.13955 136.48051,96.13955 C 136.48051,95.11789 135.9505,94.23855 134.90301,94.23855 C 133.80363,94.23855 133.31238,95.18257 133.15713,95.64812 C 133.15713,95.64812 133.13138,95.64812 133.13138,95.64812 C 133.0665,94.83352 132.61438,94.23855 131.57938,94.23855 C 130.35088,94.23855 130.0015,95.299 129.85963,95.80333 C 129.85963,95.80333 129.83388,95.80333 129.83388,95.80333 L 129.83388,94.38082 L 128.95451,94.38082 L 128.95451,100.53639 z"
     id="path3142"
     style="fill:#023d88;fill-opacity:1;fill-rule:nonzero;stroke:none" />
  <path
     d="M 139.3085,100.53639 L 140.18788,100.53639 C 140.18788,100.53639 140.18788,98.0017 140.18788,98.0017 C 140.18788,96.88962 140.70488,95.11789 141.7265,95.11789 C 142.63176,95.11789 142.63176,96.06208 142.63176,97.1223 C 142.63176,97.1223 142.63176,100.53639 142.63176,100.53639 L 143.51113,100.53639 C 143.51113,100.53639 143.51113,98.0017 143.51113,98.0017 C 143.51113,96.90252 144.01525,95.11789 145.04988,95.11789 C 145.95551,95.11789 145.95551,96.04902 145.95551,97.1223 C 145.95551,97.1223 145.95551,100.53639 145.95551,100.53639 L 146.83438,100.53639 C 146.83438,100.53639 146.83438,96.13955 146.83438,96.13955 C 146.83438,95.11789 146.3045,94.23855 145.25701,94.23855 C 144.1575,94.23855 143.66626,95.18257 143.51113,95.64812 C 143.51113,95.64812 143.48538,95.64812 143.48538,95.64812 C 143.42038,94.83352 142.96825,94.23855 141.93325,94.23855 C 140.70488,94.23855 140.35551,95.299 140.21363,95.80333 C 140.21363,95.80333 140.18788,95.80333 140.18788,95.80333 L 140.18788,94.38082 L 139.3085,94.38082 L 139.3085,100.53639 z"
     id="path3144"
     style="fill:#023d88;fill-opacity:1;fill-rule:nonzero;stroke:none" />
  <path
     d="M 153.14125,100.53639 L 154.02025,100.53639 L 154.02025,94.38082 L 153.14125,94.38082 C 153.14125,94.38082 153.14125,96.91557 153.14125,96.91557 C 153.14125,98.02765 152.57175,99.79917 151.40788,99.79917 C 150.50263,99.79917 150.50263,98.85519 150.50263,97.79474 C 150.50263,97.79474 150.50263,94.38082 150.50263,94.38082 L 149.62325,94.38082 C 149.62325,94.38082 149.62325,98.77767 149.62325,98.77767 C 149.62325,99.79917 150.14076,100.6786 151.20113,100.6786 C 152.57175,100.6786 152.95988,99.61827 153.11513,99.11388 C 153.11513,99.11388 153.14125,99.11388 153.14125,99.11388 L 153.14125,100.53639 z"
     id="path3146"
     style="fill:#023d88;fill-opacity:1;fill-rule:nonzero;stroke:none" />
  <path
     d="M 156.91713,100.53639 L 157.79663,100.53639 C 157.79663,100.53639 157.79663,98.0017 157.79663,98.0017 C 157.79663,96.88962 158.37851,95.11789 159.54251,95.11789 C 160.44763,95.11789 160.44763,96.06208 160.44763,97.1223 C 160.44763,97.1223 160.44763,100.53639 160.44763,100.53639 L 161.3275,100.53639 C 161.3275,100.53639 161.3275,96.13955 161.3275,96.13955 C 161.3275,95.11789 160.79663,94.23855 159.74913,94.23855 C 158.37851,94.23855 157.99038,95.299 157.82275,95.80333 C 157.82275,95.80333 157.79663,95.80333 157.79663,95.80333 L 157.79663,94.38082 L 156.91713,94.38082 L 156.91713,100.53639 z"
     id="path3148"
     style="fill:#023d88;fill-opacity:1;fill-rule:nonzero;stroke:none" />
  <path
     d="M 168.15538,99.77338 C 167.87088,99.83805 167.62551,99.94143 166.93988,99.94143 C 165.16826,99.94143 164.75438,98.16987 164.75438,97.23873 C 164.75438,97.23873 164.75438,96.87657 164.75438,96.87657 L 168.29775,96.87657 C 168.29775,96.87657 168.29775,96.57924 168.29775,96.57924 C 168.29775,95.23432 167.59925,94.23855 166.15075,94.23855 C 164.50888,94.23855 163.74563,95.41543 163.74563,97.25179 C 163.74563,99.52763 164.845,100.6786 166.74613,100.6786 C 167.31513,100.6786 167.78025,100.61392 168.15538,100.49755 C 168.15538,100.49755 168.15538,99.77338 168.15538,99.77338 z M 164.81925,96.13955 C 164.89663,95.72585 165.194,94.97584 166.1125,94.97584 C 167.00488,94.97584 167.28888,95.72585 167.28888,96.13955 C 167.28888,96.13955 164.81925,96.13955 164.81925,96.13955 z"
     id="path3150"
     style="fill:#023d88;fill-opacity:1;fill-rule:nonzero;stroke:none" />
  <path
     d="M 170.6745,100.53639 L 171.55338,100.53639 C 171.55338,100.53639 171.55338,98.0017 171.55338,98.0017 C 171.55338,96.88962 172.13538,95.11789 173.29926,95.11789 C 174.2045,95.11789 174.2045,96.06208 174.2045,97.1223 C 174.2045,97.1223 174.2045,100.53639 174.2045,100.53639 L 175.08388,100.53639 C 175.08388,100.53639 175.08388,96.13955 175.08388,96.13955 C 175.08388,95.11789 174.55388,94.23855 173.506,94.23855 C 172.13538,94.23855 171.74763,95.299 171.57913,95.80333 C 171.57913,95.80333 171.55338,95.80333 171.55338,95.80333 L 171.55338,94.38082 L 170.6745,94.38082 L 170.6745,100.53639 z"
     id="path3152"
     style="fill:#023d88;fill-opacity:1;fill-rule:nonzero;stroke:none" />
  <path
     d="M 65.22976,87.60455 L 66.2385,87.60455 L 66.2385,78.68159 L 65.22976,78.68159 L 65.22976,87.60455 z"
     id="path3154"
     style="fill:#023d88;fill-opacity:1;fill-rule:nonzero;stroke:none" />
  <path
     d="M 70.31975,87.60455 L 71.3285,87.60455 L 71.3285,79.52219 L 73.46213,79.52219 L 73.46213,78.68159 L 68.18625,78.68159 L 68.18625,79.52219 L 70.31975,79.52219 L 70.31975,87.60455 z"
     id="path3156"
     style="fill:#023d88;fill-opacity:1;fill-rule:nonzero;stroke:none" />
  <path
     d="M 74.89375,84.82427 L 78.82475,84.82427 L 78.82475,83.94483 L 74.89375,83.94483 L 74.89375,84.82427 z"
     id="path3158"
     style="fill:#023d88;fill-opacity:1;fill-rule:nonzero;stroke:none" />
  <path
     d="M 81.35488,87.60455 C 81.35488,87.60455 83.03625,87.60455 83.03625,87.60455 C 85.14413,87.60455 87.01938,87.07432 87.01938,83.11723 C 87.01938,80.28527 86.03638,78.68159 83.3595,78.68159 C 83.3595,78.68159 81.35488,78.68159 81.35488,78.68159 L 81.35488,87.60455 z M 82.36363,79.52219 C 82.36363,79.52219 82.93275,79.52219 82.93275,79.52219 C 84.67813,79.52219 85.91988,79.91004 85.91988,83.13024 C 85.91988,86.24679 84.78175,86.76394 83.04913,86.76394 C 83.04913,86.76394 82.36363,86.76394 82.36363,86.76394 L 82.36363,79.52219 z"
     id="path3160"
     style="fill:#023d88;fill-opacity:1;fill-rule:nonzero;stroke:none" />
  <path
     d="M 89.56463,87.60455 L 90.444,87.60455 L 90.444,81.44903 L 89.56463,81.44903 L 89.56463,87.60455 z M 89.42238,79.84535 L 90.58575,79.84535 L 90.58575,78.68159 L 89.42238,78.68159 L 89.42238,79.84535 z"
     id="path3162"
     style="fill:#023d88;fill-opacity:1;fill-rule:nonzero;stroke:none" />
  <path
     d="M 97.37113,86.84148 C 97.08613,86.90622 96.84025,87.00958 96.15476,87.00958 C 94.3835,87.00958 93.96951,85.23808 93.96951,84.30688 C 93.96951,84.30688 93.96951,83.94472 93.96951,83.94472 L 97.51288,83.94472 C 97.51288,83.94472 97.51288,83.6474 97.51288,83.6474 C 97.51288,82.30247 96.8145,81.3067 95.3665,81.3067 C 93.72375,81.3067 92.96075,82.48358 92.96075,84.31995 C 92.96075,86.59578 94.05975,87.74677 95.96088,87.74677 C 96.52988,87.74677 96.99588,87.68207 97.37113,87.5657 C 97.37113,87.5657 97.37113,86.84148 97.37113,86.84148 z M 94.034,83.20782 C 94.11188,82.79402 94.40925,82.04394 95.32738,82.04394 C 96.21963,82.04394 96.50463,82.79402 96.50463,83.20782 C 96.50463,83.20782 94.034,83.20782 94.034,83.20782 z"
     id="path3164"
     style="fill:#023d88;fill-opacity:1;fill-rule:nonzero;stroke:none" />
  <path
     d="M 99.88925,87.60455 L 100.76863,87.60455 C 100.76863,87.60455 100.76863,85.06997 100.76863,85.06997 C 100.76863,83.95778 101.35063,82.18599 102.5145,82.18599 C 103.41963,82.18599 103.41963,83.13024 103.41963,84.19047 C 103.41963,84.19047 103.41963,87.60455 103.41963,87.60455 L 104.2995,87.60455 C 104.2995,87.60455 104.2995,83.20782 104.2995,83.20782 C 104.2995,82.18599 103.76863,81.3067 102.72125,81.3067 C 101.35063,81.3067 100.9625,82.36715 100.79438,82.87154 C 100.79438,82.87154 100.76863,82.87154 100.76863,82.87154 L 100.76863,81.44903 L 99.88925,81.44903 L 99.88925,87.60455 z"
     id="path3166"
     style="fill:#023d88;fill-opacity:1;fill-rule:nonzero;stroke:none" />
  <path
     d="M 108.59288,83.81557 C 108.10163,83.55687 107.48051,83.35003 107.48051,82.8457 C 107.48051,82.406 107.97175,82.04394 108.72225,82.04394 C 109.34288,82.04394 109.95063,82.25079 110.15738,82.32825 C 110.15738,82.32825 110.15738,81.51378 110.15738,81.51378 C 109.87288,81.44903 109.36863,81.3067 108.70938,81.3067 C 107.33825,81.3067 106.60163,81.9404 106.60163,82.93628 C 106.60163,83.94472 107.429,84.28104 107.99801,84.60443 C 107.99801,84.60443 108.55425,84.9018 108.55425,84.9018 C 108.91613,85.1088 109.66613,85.38034 109.66613,86.01393 C 109.66613,86.72527 109.01963,87.00958 108.16613,87.00958 C 107.46763,87.00958 106.7305,86.7381 106.57538,86.68643 C 106.57538,86.68643 106.57538,87.48812 106.57538,87.48812 C 106.82125,87.5657 107.45476,87.74677 108.25676,87.74677 C 109.69238,87.74677 110.54551,87.11318 110.54551,85.88472 C 110.54551,84.82427 109.75675,84.46222 109.11038,84.12588 C 109.11038,84.12588 108.59288,83.81557 108.59288,83.81557 z"
     id="path3168"
     style="fill:#023d88;fill-opacity:1;fill-rule:nonzero;stroke:none" />
  <path
     d="M 115.596,86.89338 C 115.40213,86.95795 115.28563,87.00958 115.00113,87.00958 C 114.096,87.00958 113.99238,86.37599 113.99238,85.97509 C 113.99238,85.97509 113.99238,82.18599 113.99238,82.18599 L 115.648,82.18599 L 115.648,81.44903 L 113.99238,81.44903 L 113.99238,79.45745 L 113.1135,80.01352 L 113.1135,81.44903 L 112.10426,81.44903 L 112.10426,82.18599 L 113.1135,82.18599 C 113.1135,82.18599 113.1135,86.15614 113.1135,86.15614 C 113.1135,87.25549 113.5785,87.74677 114.82025,87.74677 C 115.0785,87.74677 115.33775,87.72092 115.596,87.68207 C 115.596,87.68207 115.596,86.89338 115.596,86.89338 z"
     id="path3170"
     style="fill:#023d88;fill-opacity:1;fill-rule:nonzero;stroke:none" />
  <path
     d="M 117.839,87.60455 L 118.71788,87.60455 L 118.71788,78.68159 L 117.839,78.68159 L 117.839,87.60455 z"
     id="path3172"
     style="fill:#023d88;fill-opacity:1;fill-rule:nonzero;stroke:none" />
  <path
     d="M 125.645,86.84148 C 125.36,86.90622 125.11463,87.00958 124.429,87.00958 C 122.65738,87.00958 122.24388,85.23808 122.24388,84.30688 C 122.24388,84.30688 122.24388,83.94472 122.24388,83.94472 L 125.78725,83.94472 C 125.78725,83.94472 125.78725,83.6474 125.78725,83.6474 C 125.78725,82.30247 125.08875,81.3067 123.64038,81.3067 C 121.99801,81.3067 121.23513,82.48358 121.23513,84.31995 C 121.23513,86.59578 122.33413,87.74677 124.23525,87.74677 C 124.80425,87.74677 125.26975,87.68207 125.645,87.5657 C 125.645,87.5657 125.645,86.84148 125.645,86.84148 z M 122.30838,83.20782 C 122.38575,82.79402 122.68313,82.04394 123.60163,82.04394 C 124.494,82.04394 124.77801,82.79402 124.77801,83.20782 C 124.77801,83.20782 122.30838,83.20782 122.30838,83.20782 z"
     id="path3174"
     style="fill:#023d88;fill-opacity:1;fill-rule:nonzero;stroke:none" />
  <path
     d="M 128.24138,87.60455 L 129.12025,87.60455 L 129.12025,81.44903 L 128.24138,81.44903 L 128.24138,87.60455 z M 128.09863,79.84535 L 129.26263,79.84535 L 129.26263,78.68159 L 128.09863,78.68159 L 128.09863,79.84535 z"
     id="path3176"
     style="fill:#023d88;fill-opacity:1;fill-rule:nonzero;stroke:none" />
  <path
     d="M 133.51238,83.81557 C 133.02113,83.55687 132.4005,83.35003 132.4005,82.8457 C 132.4005,82.406 132.89176,82.04394 133.64176,82.04394 C 134.26238,82.04394 134.87013,82.25079 135.07688,82.32825 C 135.07688,82.32825 135.07688,81.51378 135.07688,81.51378 C 134.79275,81.44903 134.28825,81.3067 133.62888,81.3067 C 132.25775,81.3067 131.52113,81.9404 131.52113,82.93628 C 131.52113,83.94472 132.3485,84.28104 132.9175,84.60443 C 132.9175,84.60443 133.47375,84.9018 133.47375,84.9018 C 133.83563,85.1088 134.58563,85.38034 134.58563,86.01393 C 134.58563,86.72527 133.93913,87.00958 133.08563,87.00958 C 132.38713,87.00958 131.65,86.7381 131.49488,86.68643 C 131.49488,86.68643 131.49488,87.48812 131.49488,87.48812 C 131.74075,87.5657 132.37426,87.74677 133.17625,87.74677 C 134.61188,87.74677 135.465,87.11318 135.465,85.88472 C 135.465,84.82427 134.67625,84.46222 134.02988,84.12588 C 134.02988,84.12588 133.51238,83.81557 133.51238,83.81557 z"
     id="path3178"
     style="fill:#023d88;fill-opacity:1;fill-rule:nonzero;stroke:none" />
  <path
     d="M 140.51551,86.89338 C 140.32163,86.95795 140.20563,87.00958 139.92113,87.00958 C 139.01551,87.00958 138.91238,86.37599 138.91238,85.97509 C 138.91238,85.97509 138.91238,82.18599 138.91238,82.18599 L 140.5675,82.18599 L 140.5675,81.44903 L 138.91238,81.44903 L 138.91238,79.45745 L 138.03288,80.01352 L 138.03288,81.44903 L 137.02413,81.44903 L 137.02413,82.18599 L 138.03288,82.18599 C 138.03288,82.18599 138.03288,86.15614 138.03288,86.15614 C 138.03288,87.25549 138.49838,87.74677 139.73975,87.74677 C 139.9985,87.74677 140.25725,87.72092 140.51551,87.68207 C 140.51551,87.68207 140.51551,86.89338 140.51551,86.89338 z"
     id="path3180"
     style="fill:#023d88;fill-opacity:1;fill-rule:nonzero;stroke:none" />
  <path
     d="M 146.14663,87.60455 L 147.026,87.60455 L 147.026,81.44903 L 146.14663,81.44903 C 146.14663,81.44903 146.14663,83.98367 146.14663,83.98367 C 146.14663,85.09575 145.57751,86.86732 144.41363,86.86732 C 143.5085,86.86732 143.5085,85.92334 143.5085,84.86289 C 143.5085,84.86289 143.5085,81.44903 143.5085,81.44903 L 142.62913,81.44903 C 142.62913,81.44903 142.62913,85.84588 142.62913,85.84588 C 142.62913,86.86732 143.14663,87.74677 144.2065,87.74677 C 145.57751,87.74677 145.96525,86.68643 146.12038,86.18209 C 146.12038,86.18209 146.14663,86.18209 146.14663,86.18209 L 146.14663,87.60455 z"
     id="path3182"
     style="fill:#023d88;fill-opacity:1;fill-rule:nonzero;stroke:none" />
  <path
     d="M 149.92301,87.60455 L 150.80188,87.60455 C 150.80188,87.60455 150.80188,85.06997 150.80188,85.06997 C 150.80188,83.95778 151.38388,82.18599 152.54825,82.18599 C 153.45338,82.18599 153.45338,83.13024 153.45338,84.19047 C 153.45338,84.19047 153.45338,87.60455 153.45338,87.60455 L 154.33275,87.60455 C 154.33275,87.60455 154.33275,83.20782 154.33275,83.20782 C 154.33275,82.18599 153.80238,81.3067 152.755,81.3067 C 151.38388,81.3067 150.99613,82.36715 150.82813,82.87154 C 150.82813,82.87154 150.80188,82.87154 150.80188,82.87154 L 150.80188,81.44903 L 149.92301,81.44903 L 149.92301,87.60455 z"
     id="path3184"
     style="fill:#023d88;fill-opacity:1;fill-rule:nonzero;stroke:none" />
  <path
     d="M 161.32926,81.44903 L 160.44988,81.44903 L 160.44988,82.45774 C 160.44988,82.45774 160.424,82.45774 160.424,82.45774 C 160.32051,82.06978 159.86788,81.3067 158.82038,81.3067 C 157.29413,81.3067 156.71263,82.92328 156.71263,84.56553 C 156.71263,86.09147 157.17775,87.60455 158.79425,87.60455 C 159.855,87.60455 160.29475,86.84148 160.424,86.42773 C 160.424,86.42773 160.44988,86.42773 160.44988,86.42773 C 160.44988,86.42773 160.44988,87.51397 160.44988,87.51397 C 160.44988,88.61327 160.17826,89.55728 158.5875,89.55728 C 157.74725,89.55728 157.1395,89.23407 157.04875,89.19523 C 157.04875,89.19523 157.04875,90.0875 157.04875,90.0875 C 157.256,90.12635 157.76013,90.29424 158.71688,90.29424 C 160.4885,90.29424 161.32926,89.36328 161.32926,87.6176 C 161.32926,87.6176 161.32926,81.44903 161.32926,81.44903 z M 157.72138,84.57859 C 157.72138,83.25949 158.07,82.04394 159.00138,82.04394 C 160.04888,82.04394 160.44988,83.45345 160.44988,84.41042 C 160.44988,85.44485 160.036,86.86732 158.97563,86.86732 C 157.92813,86.86732 157.72138,85.5226 157.72138,84.57859 z"
     id="path3186"
     style="fill:#023d88;fill-opacity:1;fill-rule:nonzero;stroke:none" />
  <path
     d="M 168.15538,86.84148 C 167.87088,86.90622 167.62551,87.00958 166.93988,87.00958 C 165.16826,87.00958 164.75475,85.23808 164.75475,84.30688 C 164.75475,84.30688 164.75475,83.94472 164.75475,83.94472 L 168.29775,83.94472 C 168.29775,83.94472 168.29775,83.6474 168.29775,83.6474 C 168.29775,82.30247 167.59963,81.3067 166.15075,81.3067 C 164.50888,81.3067 163.746,82.48358 163.746,84.31995 C 163.746,86.59578 164.845,87.74677 166.74613,87.74677 C 167.31513,87.74677 167.78025,87.68207 168.15538,87.5657 C 168.15538,87.5657 168.15538,86.84148 168.15538,86.84148 z M 164.81925,83.20782 C 164.89663,82.79402 165.194,82.04394 166.1125,82.04394 C 167.00488,82.04394 167.28888,82.79402 167.28888,83.20782 C 167.28888,83.20782 164.81925,83.20782 164.81925,83.20782 z"
     id="path3188"
     style="fill:#023d88;fill-opacity:1;fill-rule:nonzero;stroke:none" />
  <path
     d="M 170.6745,87.60455 L 171.55388,87.60455 C 171.55388,87.60455 171.55388,85.06997 171.55388,85.06997 C 171.55388,83.95778 172.13538,82.18599 173.29926,82.18599 C 174.2045,82.18599 174.2045,83.13024 174.2045,84.19047 C 174.2045,84.19047 174.2045,87.60455 174.2045,87.60455 L 175.08388,87.60455 C 175.08388,87.60455 175.08388,83.20782 175.08388,83.20782 C 175.08388,82.18599 174.55388,81.3067 173.506,81.3067 C 172.13538,81.3067 171.74763,82.36715 171.57963,82.87154 C 171.57963,82.87154 171.55388,82.87154 171.55388,82.87154 L 171.55388,81.44903 L 170.6745,81.44903 L 170.6745,87.60455 z"
     id="path3190"
     style="fill:#023d88;fill-opacity:1;fill-rule:nonzero;stroke:none" />
  <path
     d="M 32.32588,7.93275 L 35.56288,7.93275 L 35.56288,11.17024 L 32.32588,11.17024 L 32.32588,7.93275 z M 32.38813,5.6843419e-14 L 35.62563,5.6843419e-14 L 35.62563,3.23743 L 32.38813,3.23743 L 32.38813,5.6843419e-14 z M 16.76938,23.2986 L 20.00688,23.2986 L 20.00688,26.53597 L 16.76938,26.53597 L 16.76938,23.2986 z M 24.54026,23.2986 L 27.77738,23.2986 L 27.77738,26.53597 L 24.54026,26.53597 L 24.54026,23.2986 z M 32.31075,23.2986 L 35.54825,23.2986 L 35.54825,26.53597 L 32.31075,26.53597 L 32.31075,23.2986 z M 7.84076,30.56842 L 13.11,30.56842 L 13.11,35.83765 L 7.84076,35.83765 L 7.84076,30.56842 z M 15.75088,30.56842 L 21.01963,30.56842 L 21.01963,35.83765 L 15.75088,35.83765 L 15.75088,30.56842 z M 23.48713,30.56842 L 28.75638,30.56842 L 28.75638,35.83765 L 23.48713,35.83765 L 23.48713,30.56842 z M 32.2965,31.58435 L 35.534,31.58435 L 35.534,34.82172 L 32.2965,34.82172 L 32.2965,31.58435 z M 24.51813,39.79175 L 27.75551,39.79175 L 27.75551,43.02917 L 24.51813,43.02917 L 24.51813,39.79175 z M 32.2885,39.79175 L 35.5265,39.79175 L 35.5265,43.02917 L 32.2885,43.02917 L 32.2885,39.79175 z M 8.02526,14.3742 L 13.29451,14.3742 L 13.29451,19.64349 L 8.02526,19.64349 L 8.02526,14.3742 z M 15.79613,14.3742 L 21.06538,14.3742 L 21.06538,19.64349 L 15.79613,19.64349 L 15.79613,14.3742 z M 23.56713,14.3742 L 28.83638,14.3742 L 28.83638,19.64349 L 23.56713,19.64349 L 23.56713,14.3742 z M 31.33763,14.3742 L 36.60688,14.3742 L 36.60688,19.64349 L 31.33763,19.64349 L 31.33763,14.3742 z M 0,14.3742 L 5.26925,14.3742 L 5.26925,19.64349 L 0,19.64349 L 0,14.3742 z M 39.8745,15.46255 L 43.112,15.46255 L 43.112,18.70003 L 39.8745,18.70003 L 39.8745,15.46255 z M 47.90025,15.46255 L 51.13725,15.46255 L 51.13725,18.70003 L 47.90025,18.70003 L 47.90025,15.46255 z"
     id="path3192"
     style="fill:#023d88;fill-opacity:1;fill-rule:nonzero;stroke:none" />
  <path
     d="M 39.31125,82.34209 L 44.58051,82.34209 L 44.58051,87.61127 L 39.31125,87.61127 L 39.31125,82.34209 z M 47.22088,82.34209 L 52.49013,82.34209 L 52.49013,87.61127 L 47.22088,87.61127 L 47.22088,82.34209 z M 54.9575,82.34204 L 60.22675,82.34204 L 60.22675,87.61127 L 54.9575,87.61127 L 54.9575,82.34204 z"
     id="path3228"
     style="fill:#023d88;fill-opacity:1;fill-rule:nonzero;stroke:none" />
</svg>